<svg xmlns="http://www.w3.org/2000/svg" viewBox="0 0 3088 1440" role="img" aria-label="Sparrowhawk">
<path fill="#F4F3EB" fill-rule="evenodd" d="M 26,24 L 891,53 L 904,64 L 902,67 L 1008,192 L 1160,348 L 1374,587 L 1372,818 L 1446,878 L 1541,966 L 1575,944 L 1636,888 L 1676,859 L 1717,824 L 1721,637 L 1723,606 L 1728,589 L 1816,505 L 1999,312 L 2127,188 L 2227,85 L 3063,104 L 2959,193 L 2921,218 L 2884,235 L 2807,259 L 2630,305 L 2530,336 L 2527,339 L 2529,341 L 2753,347 L 2772,351 L 2773,354 L 2767,361 L 2695,423 L 2615,500 L 2375,546 L 2256,577 L 2256,581 L 2468,585 L 2491,589 L 2494,594 L 2319,749 L 2152,799 L 2122,804 L 2047,824 L 1994,842 L 1953,863 L 1870,932 L 1754,1033 L 1713,1073 L 1765,1128 L 1803,1161 L 1810,1172 L 1810,1180 L 1744,1239 L 1705,1269 L 1687,1277 L 1680,1277 L 1674,1273 L 1648,1243 L 1626,1229 L 1626,1241 L 1639,1268 L 1650,1301 L 1647,1321 L 1547,1405 L 1530,1415 L 1442,1335 L 1421,1309 L 1420,1294 L 1438,1259 L 1445,1233 L 1443,1229 L 1402,1265 L 1391,1271 L 1378,1272 L 1341,1243 L 1263,1161 L 1263,1157 L 1291,1129 L 1314,1114 L 1347,1086 L 1362,1070 L 1362,1064 L 1312,1011 L 1200,913 L 1112,827 L 1099,818 L 958,783 L 770,713 L 730,686 L 685,649 L 628,595 L 604,568 L 594,552 L 594,548 L 601,545 L 644,542 L 804,545 L 813,542 L 815,540 L 812,537 L 766,521 L 614,480 L 472,451 L 310,297 L 310,292 L 332,289 L 555,293 L 557,291 L 554,288 L 254,192 L 183,164 L 142,139 L 115,118 L 59,65 L 26,29 L 26,24 Z "/>
</svg>
